<?xml version="1.0" standalone="no"?>
<!DOCTYPE svg PUBLIC "-//W3C//DTD SVG 20010904//EN"
 "http://www.w3.org/TR/2001/REC-SVG-20010904/DTD/svg10.dtd">
<svg version="1.0" xmlns="http://www.w3.org/2000/svg"
 width="325.000000pt" height="325.000000pt" viewBox="0 0 325.000000 325.000000"
 preserveAspectRatio="xMidYMid meet">
<metadata>
Created by potrace 1.11, written by Peter Selinger 2001-2013
</metadata>
<g transform="translate(0.000000,325.000000) scale(0.100000,-0.100000)"
fill="#000000" stroke="none">
<path d="M1489 3226 c-2 -2 -35 -6 -74 -10 -145 -12 -349 -73 -510 -153 -90
-44 -253 -149 -310 -198 -238 -207 -407 -454 -499 -730 -135 -402 -98 -868 97
-1240 228 -435 638 -741 1120 -836 117 -23 368 -32 487 -18 534 65 1000 390
1238 864 73 146 98 215 132 358 32 137 39 205 40 357 1 161 -9 255 -41 385
-119 490 -463 895 -928 1096 -97 41 -265 92 -341 103 -25 4 -72 10 -105 15
-57 8 -299 13 -306 7z m-398 -841 c176 -46 297 -159 332 -312 9 -34 15 -117
16 -190 6 -683 9 -799 24 -850 l15 -53 -133 0 -132 0 -7 38 c-3 20 -9 64 -12
97 -4 33 -7 61 -8 62 -1 1 -34 -29 -74 -67 -120 -115 -245 -162 -410 -154
-188 10 -322 105 -373 264 -20 66 -27 172 -14 240 29 160 205 297 415 325 25
3 54 8 65 10 11 2 104 4 206 4 l187 1 -3 106 c-3 90 -7 113 -30 160 -41 83
-113 128 -224 137 -145 13 -275 -59 -302 -166 l-10 -42 -119 -2 c-116 -3 -119
-2 -122 20 -6 35 18 115 48 161 78 120 214 199 382 225 72 11 213 4 283 -14z
m1006 -462 c84 -252 160 -488 169 -525 9 -38 19 -68 23 -68 3 0 14 24 23 53
41 129 291 897 306 942 l17 50 142 3 142 3 -13 -38 c-8 -21 -69 -189 -136
-373 -67 -184 -191 -526 -276 -760 -185 -508 -185 -508 -239 -590 -77 -118
-145 -171 -250 -195 -52 -12 -159 -10 -210 4 -33 9 -34 11 -22 118 11 93 8 91
86 85 84 -5 130 14 173 72 30 41 87 153 127 252 l21 52 -231 608 c-127 335
-244 644 -260 687 l-28 77 142 0 142 0 152 -457z"/>
<path d="M795 1619 c-83 -19 -162 -74 -205 -144 -46 -75 -30 -197 36 -258 95
-88 347 -52 476 68 74 68 84 96 83 225 l0 115 -175 1 c-96 1 -193 -3 -215 -7z"/>
</g>
</svg>
