<?xml version="1.0" encoding="iso-8859-1"?>
<svg xmlns="http://www.w3.org/2000/svg" xmlns:xlink="http://www.w3.org/1999/xlink" id="Layer_1" x="0px" y="0px" style="enable-background:new 0 0 511.999 511.999;" version="1.1" viewBox="0 0 511.999 511.999" xml:space="preserve">
    <g>
        <path d="M340.984,165.765c-4.602,0-8.332,3.731-8.332,8.332c0,23.698-11.111,46.18-29.846,60.669h-38.472v-45.105l20.888-20.888
			c3.254-3.254,3.254-8.53,0-11.783c-3.254-3.254-8.53-3.254-11.783,0l-17.438,17.437l-17.437-17.437
			c-3.254-3.254-8.53-3.254-11.783,0c-3.254,3.254-3.254,8.53,0,11.783l20.888,20.888v45.105h-38.474
			c-18.789-14.525-29.9-37.079-29.845-60.86c0.1-41.183,33.653-75.476,74.796-76.444c33.106-0.782,62.819,19.594,74.004,50.686
			c1.558,4.33,6.334,6.578,10.661,5.02c4.331-1.558,6.578-6.33,5.02-10.661c-13.615-37.851-49.802-62.625-90.075-61.705
			c-50.094,1.18-90.947,42.927-91.069,93.064c-0.067,28.567,13.094,55.68,35.406,73.376v28.817
			c0,15.418,10.752,28.363,25.149,31.753c-0.54,1.104-0.852,2.341-0.852,3.653c0,4.602,3.731,8.332,8.332,8.332h50.559
			c4.602,0,8.332-3.731,8.332-8.332c0-1.312-0.312-2.549-0.852-3.653c14.397-3.392,25.149-16.336,25.149-31.753v-28.818
			c22.247-17.651,35.406-44.677,35.406-73.144C349.316,169.496,345.585,165.765,340.984,165.765z M297.246,276.06h-0.001
			c0.001,8.803-7.161,15.964-15.964,15.964h-50.559c-8.803,0-15.964-7.161-15.964-15.964v-24.63h82.488V276.06z"/>
    </g>
    <g>
        <path d="M471.246,24.766H40.754C18.283,24.766,0,43.049,0,65.52v59.227c0,4.602,3.731,8.332,8.332,8.332
			c4.601,0,8.332-3.731,8.332-8.332V65.52c0-13.284,10.807-24.09,24.09-24.09h430.492c13.284,0,24.09,10.807,24.09,24.09v284.411
			h-52.21c-4.602,0-8.332,3.731-8.332,8.332s3.731,8.332,8.332,8.332h52.21v15.273c0,13.284-10.807,24.09-24.09,24.09h-155.41
			H196.164H40.754c-13.284,0-24.09-10.807-24.09-24.09v-15.273h398.688c4.602,0,8.332-3.731,8.332-8.332s-3.731-8.332-8.332-8.332
			H16.664V152.522c0-4.602-3.731-8.332-8.332-8.332c-4.601,0-8.332,3.73-8.332,8.332V381.87c0,22.472,18.283,40.754,40.754,40.754
			H183.54l-20.494,47.945h-40.034c-4.602,0-8.332,3.731-8.332,8.332s3.731,8.332,8.332,8.332h265.975
			c4.602,0,8.332-3.731,8.332-8.332s-3.731-8.332-8.332-8.332h-40.034l-20.494-47.945h142.786c22.472,0,40.754-18.282,40.754-40.754
			V65.52C512,43.049,493.717,24.766,471.246,24.766z M330.83,470.568H181.17l14.238-33.31h121.185L330.83,470.568z"/>
    </g>
    <g>
        <path d="M262.924,379.679c-1.914-2.906-5.583-4.299-8.952-3.457c-3.517,0.879-6.116,4.048-6.291,7.67
			c-0.364,7.534,9.106,11.629,14.33,6.172C264.674,387.282,265.089,382.887,262.924,379.679z"/>
    </g>
</svg>
