<?xml version="1.0" encoding="UTF-8"?>
<svg width="40px" height="50px" viewBox="0 0 40 50" version="1.1" xmlns="http://www.w3.org/2000/svg" xmlns:xlink="http://www.w3.org/1999/xlink">
    <g id="Symbols" stroke="none" stroke-width="1" fill="none" fill-rule="evenodd">
        <g id="icon-javascript" fill-rule="nonzero" fill="currentcolor">
            <g id="001-javascript">
                <path d="M38.7491379,10.5060345 L37.5758621,9.33275862 L29.3827586,1.1387931 C29.3818966,1.13793103 29.3818966,1.13793103 29.3818966,1.13793103 L28.7172414,0.473275862 C28.4112069,0.168103448 28.0051724,0 27.5732759,0 L2.55431034,0 C1.53103448,0 0.431034483,0.789655172 0.431034483,2.52241379 L0.431034483,33.6206897 L0.431034483,47.8767241 L0.431034483,48.2758621 C0.431034483,48.9974138 1.15603448,49.7 2.0137931,49.9215517 C2.05775862,49.9336207 2.1,49.95 2.14482759,49.9586207 C2.27931034,49.9853448 2.41637931,50 2.55431034,50 L37.1008621,50 C37.2387931,50 37.3758621,49.9853448 37.5103448,49.9586207 C37.5551724,49.95 37.5974138,49.9336207 37.6413793,49.9215517 C38.4991379,49.7 39.2241379,48.9974138 39.2241379,48.2758621 L39.2241379,47.8767241 L39.2241379,33.6206897 L39.2241379,12.05 C39.2241379,11.3887931 39.1439655,10.9 38.7491379,10.5060345 Z M28.8793103,3.07327586 L36.1508621,10.3448276 L28.8793103,10.3448276 L28.8793103,3.07327586 Z M2.55431034,48.2758621 C2.49310345,48.2758621 2.43793103,48.2543103 2.38362069,48.2336207 C2.25,48.1698276 2.15517241,48.0353448 2.15517241,47.8767241 L2.15517241,35.3448276 L37.5,35.3448276 L37.5,47.8767241 C37.5,48.0353448 37.4051724,48.1698276 37.2715517,48.2336207 C37.2172414,48.2543103 37.162069,48.2758621 37.1008621,48.2758621 L2.55431034,48.2758621 Z M2.15517241,33.6206897 L2.15517241,2.52241379 C2.15517241,2.33534483 2.18362069,1.72413793 2.55431034,1.72413793 L27.2051724,1.72413793 C27.1767241,1.83275862 27.1551724,1.94482759 27.1551724,2.0612069 L27.1551724,11.8793103 C26.6965517,11.4655172 26.0956897,11.2068966 25.4310345,11.2068966 C24.9543103,11.2068966 24.5689655,11.5931034 24.5689655,12.0689655 C24.5689655,12.5448276 24.9543103,12.9310345 25.4310345,12.9310345 C25.9068966,12.9310345 26.2931034,13.3181034 26.2931034,13.7931034 L26.2931034,17.2413793 C26.2931034,18.2758621 26.7603448,19.1948276 27.4844828,19.8275862 C26.7603448,20.4603448 26.2931034,21.3793103 26.2931034,22.4137931 L26.2931034,25.862069 C26.2931034,26.337069 25.9068966,26.7241379 25.4310345,26.7241379 C24.9543103,26.7241379 24.5689655,27.1103448 24.5689655,27.5862069 C24.5689655,28.062069 24.9543103,28.4482759 25.4310345,28.4482759 C26.8568966,28.4482759 28.0172414,27.287931 28.0172414,25.862069 L28.0172414,22.4137931 C28.0172414,21.462931 28.7905172,20.6896552 29.7413793,20.6896552 C30.2181034,20.6896552 30.6034483,20.3034483 30.6034483,19.8275862 C30.6034483,19.3517241 30.2181034,18.9655172 29.7413793,18.9655172 C28.7905172,18.9655172 28.0172414,18.1922414 28.0172414,17.2413793 L28.0172414,13.7931034 C28.0172414,13.1284483 27.7577586,12.5275862 27.3448276,12.0689655 L37.162931,12.0689655 C37.2793103,12.0689655 37.3913793,12.0474138 37.5,12.0189655 C37.5,12.0318966 37.5008621,12.037069 37.5008621,12.05 L37.5008621,33.6206897 L2.15517241,33.6206897 Z" id="Shape"></path>
                <path d="M16.6844828,44.3362069 C16.6681034,44.7206897 16.537069,44.9948276 16.2896552,45.1551724 C16.0422414,45.3155172 15.7094828,45.3965517 15.2939655,45.3965517 C15.1293103,45.3965517 14.9525862,45.3775862 14.7637931,45.337931 C14.575,45.2982759 14.3939655,45.2534483 14.2215517,45.2025862 C14.0482759,45.1508621 13.8896552,45.0965517 13.7439655,45.037931 C13.5982759,44.9793103 13.4862069,44.9215517 13.4077586,44.8672414 L12.8068966,45.8215517 C12.9637931,45.9396552 13.1560345,46.0456897 13.3844828,46.1396552 C13.612069,46.2336207 13.85,46.3181034 14.0974138,46.3931034 C14.3448276,46.4681034 14.5844828,46.5224138 14.8163793,46.5577586 C15.0482759,46.5931034 15.25,46.6112069 15.4232759,46.6112069 C15.7681034,46.6112069 16.1051724,46.5775862 16.4310345,46.5112069 C16.7568966,46.4448276 17.0456897,46.3267241 17.2974138,46.1577586 C17.5482759,45.9887931 17.7482759,45.7646552 17.8982759,45.4862069 C18.0474138,45.2077586 18.1224138,44.862931 18.1224138,44.4551724 L18.1224138,37.6896552 L16.6844828,37.6896552 L16.6844828,44.3362069 L16.6844828,44.3362069 Z" id="Shape"></path>
                <path d="M24.2094828,42.2965517 C23.9387931,42.1 23.6456897,41.9327586 23.3310345,41.7956897 C23.0163793,41.6586207 22.7258621,41.5172414 22.4586207,41.3715517 C22.1905172,41.2258621 21.9672414,41.0577586 21.787069,40.8646552 C21.6060345,40.6715517 21.5163793,40.4181034 21.5163793,40.1043103 C21.5163793,39.9784483 21.5474138,39.8465517 21.6103448,39.7094828 C21.6724138,39.5724138 21.7594828,39.4482759 21.8698276,39.337931 C21.9793103,39.2275862 22.1051724,39.1362069 22.2474138,39.0612069 C22.3896552,38.9862069 22.537931,38.9413793 22.6956897,38.9258621 C22.9784483,38.9025862 23.2103448,38.8982759 23.3913793,38.9137931 C23.5715517,38.9301724 23.7172414,38.9568966 23.8275862,38.9965517 C23.937069,39.0362069 24.0224138,39.075 24.0810345,39.1146552 C24.1396552,39.1543103 24.1931034,39.1853448 24.2405172,39.2086207 C24.2482759,39.2008621 24.2715517,39.1612069 24.3112069,39.0905172 C24.35,39.0198276 24.3974138,38.9310345 24.4525862,38.825 C24.5068966,38.7189655 24.5663793,38.6051724 24.6293103,38.4836207 C24.6913793,38.3612069 24.7474138,38.25 24.7939655,38.1474138 C24.5655172,37.9982759 24.2672414,37.8896552 23.8982759,37.8232759 C23.5284483,37.7568966 23.162931,37.7232759 22.8025862,37.7232759 C22.4491379,37.7232759 22.112931,37.7775862 21.7948276,37.887931 C21.4767241,37.9982759 21.1982759,38.1577586 20.9577586,38.3655172 C20.7172414,38.5732759 20.5275862,38.8267241 20.3862069,39.1258621 C20.2448276,39.425 20.1724138,39.7672414 20.1724138,40.1517241 C20.1724138,40.5758621 20.262069,40.9293103 20.4431034,41.212069 C20.6232759,41.4948276 20.8517241,41.7405172 21.1267241,41.9482759 C21.4008621,42.1560345 21.6956897,42.337069 22.0103448,42.4905172 C22.3241379,42.6439655 22.6172414,42.7965517 22.8887931,42.95 C23.1603448,43.1034483 23.3853448,43.2741379 23.5663793,43.462931 C23.7465517,43.6517241 23.837069,43.8793103 23.837069,44.1465517 C23.837069,44.587069 23.7094828,44.9189655 23.4543103,45.1422414 C23.1991379,45.3655172 22.8310345,45.4784483 22.3525862,45.4784483 C22.1948276,45.4784483 22.0258621,45.462069 21.8456897,45.4310345 C21.6646552,45.4 21.4836207,45.3586207 21.3034483,45.3068966 C21.1224138,45.2551724 20.9482759,45.2008621 20.7793103,45.1422414 C20.6103448,45.0836207 20.4706897,45.0224138 20.3612069,44.9594828 L20.1137931,45.9732759 C20.2465517,46.0913793 20.4068966,46.1913793 20.5913793,46.2741379 C20.7758621,46.3568966 20.9698276,46.4215517 21.175,46.4689655 C21.3784483,46.5163793 21.5818966,46.55 21.7818966,46.5689655 C21.9818966,46.587931 22.1767241,46.5982759 22.3655172,46.5982759 C22.8051724,46.5982759 23.1982759,46.5318966 23.5439655,46.3982759 C23.8887931,46.2646552 24.1801724,46.0862069 24.4163793,45.862069 C24.6525862,45.637931 24.8344828,45.3784483 24.9646552,45.0844828 C25.0948276,44.7905172 25.1594828,44.4853448 25.1594828,44.1706897 C25.1594828,43.7068966 25.0689655,43.3275862 24.8887931,43.0336207 C24.7060345,42.7387931 24.4801724,42.4931034 24.2094828,42.2965517 Z" id="Shape"></path>
                <path d="M12.5,17.2413793 L12.5,13.7931034 C12.5,13.3181034 12.8862069,12.9310345 13.362069,12.9310345 C13.8387931,12.9310345 14.2241379,12.5448276 14.2241379,12.0689655 C14.2241379,11.5931034 13.8387931,11.2068966 13.362069,11.2068966 C11.9362069,11.2068966 10.7758621,12.3672414 10.7758621,13.7931034 L10.7758621,17.2413793 C10.7758621,18.1922414 10.0025862,18.9655172 9.05172414,18.9655172 C8.575,18.9655172 8.18965517,19.3517241 8.18965517,19.8275862 C8.18965517,20.3034483 8.575,20.6896552 9.05172414,20.6896552 C10.0025862,20.6896552 10.7758621,21.462931 10.7758621,22.4137931 L10.7758621,25.862069 C10.7758621,27.287931 11.9362069,28.4482759 13.362069,28.4482759 C13.8387931,28.4482759 14.2241379,28.062069 14.2241379,27.5862069 C14.2241379,27.1103448 13.8387931,26.7241379 13.362069,26.7241379 C12.8862069,26.7241379 12.5,26.337069 12.5,25.862069 L12.5,22.4137931 C12.5,21.3793103 12.0327586,20.4603448 11.3086207,19.8275862 C12.0327586,19.1948276 12.5,18.2758621 12.5,17.2413793 Z" id="Shape"></path>
                <circle id="Oval" cx="19.3965517" cy="16.8103448" r="1.29310345"></circle>
                <path d="M19.3965517,21.5517241 C18.9198276,21.5517241 18.5344828,21.937931 18.5344828,22.4137931 L18.5344828,25 C18.5344828,25.4758621 18.9198276,25.862069 19.3965517,25.862069 C19.8732759,25.862069 20.2586207,25.4758621 20.2586207,25 L20.2586207,22.4137931 C20.2586207,21.937931 19.8732759,21.5517241 19.3965517,21.5517241 Z" id="Shape"></path>
            </g>
        </g>
    </g>
</svg>