<svg width="28px" height="28px" viewBox="0 0 28 28" version="1.1" xmlns="http://www.w3.org/2000/svg" xmlns:xlink="http://www.w3.org/1999/xlink">
    <g id="Symbols" stroke="none" stroke-width="1" fill="none" fill-rule="evenodd">
        <g id="linkdin" fill-rule="nonzero" fill="currentcolor">
            <path d="M26.431426,1.53859681 C25.4060137,0.512929385 24.1705695,0 22.7260501,0 L5.24441913,0 C3.79989977,0 2.56445558,0.512929385 1.53859681,1.53859681 C0.512929385,2.56445558 0,3.79983599 0,5.24441913 L0,22.7258588 C0,24.1703144 0.512929385,25.4058223 1.53859681,26.4316811 C2.56445558,27.4575399 3.79989977,27.9704692 5.24441913,27.9704692 L22.7258588,27.9704692 C24.1703781,27.9704692 25.4058223,27.4575399 26.4312346,26.4316811 C27.4570934,25.4058223 27.9700228,24.1703781 27.9700228,22.7258588 L27.9700228,5.24441913 C27.969959,3.79983599 27.4570296,2.56426424 26.431426,1.53859681 Z M8.52214123,23.4177585 L4.31563554,23.4177585 L4.31563554,10.7800638 L8.52214123,10.7800638 L8.52214123,23.4177585 Z M8.13996355,8.44030979 C7.70299772,8.85916173 7.12628702,9.06861959 6.409959,9.06861959 L6.39158998,9.06861959 C5.69969021,9.06861959 5.13841458,8.85916173 4.70731663,8.44030979 C4.2761549,8.02145786 4.06070159,7.50253303 4.06070159,6.88340774 C4.06070159,6.25216401 4.28240547,5.73005011 4.72536674,5.31719362 C5.16864692,4.90446469 5.74216856,4.69800456 6.44618679,4.69800456 C7.15026879,4.69800456 7.71479727,4.90446469 8.13977221,5.31719362 C8.56461959,5.73005011 8.78319818,6.25216401 8.79525285,6.88340774 C8.79518907,7.5022779 8.57692938,8.02120273 8.13996355,8.44030979 Z M23.6545786,23.4177585 L19.4480729,23.4177585 L19.4480729,16.662041 C19.4480729,14.7563189 18.7441822,13.8031708 17.3358907,13.8031708 C16.8017859,13.8031708 16.3523827,13.9518451 15.9883189,14.2493212 C15.6238087,14.5466059 15.3507608,14.9077995 15.1689203,15.3330296 C15.0837722,15.5512893 15.0414214,15.8911162 15.0414214,16.3523189 L15.0414214,23.4176948 L10.8349157,23.4176948 C10.8713349,15.7939772 10.8713349,11.581221 10.8349157,10.7799362 L15.0414214,10.7799362 L15.0414214,12.5641549 C15.925877,11.1813121 17.181795,10.4884556 18.8109613,10.4884556 C20.2677267,10.4884556 21.4393895,10.9680911 22.3255672,11.9269795 C23.2118087,12.8860592 23.6548337,14.3005376 23.6548337,16.1696492 L23.6548337,23.4177585 L23.6545786,23.4177585 Z" id="Shape"></path>
        </g>
    </g>
</svg>