<?xml version="1.0" encoding="UTF-8"?>
<svg width="50px" height="50px" viewBox="0 0 50 50" version="1.1" xmlns="http://www.w3.org/2000/svg" xmlns:xlink="http://www.w3.org/1999/xlink">
    <g id="Symbols" stroke="none" stroke-width="1" fill="none" fill-rule="evenodd">
        <g id="icon-server" fill-rule="nonzero" fill="currentcolor">
            <g id="011-server">
                <path d="M8.75,5.41666667 C6.6825,5.41666667 5,7.09916667 5,9.16666667 C5,11.2341667 6.6825,12.9166667 8.75,12.9166667 C10.8175,12.9166667 12.5,11.2341667 12.5,9.16666667 C12.5,7.09916667 10.8175,5.41666667 8.75,5.41666667 Z M8.75,11.25 C7.60166667,11.25 6.66666667,10.3158333 6.66666667,9.16666667 C6.66666667,8.0175 7.60166667,7.08333333 8.75,7.08333333 C9.89833333,7.08333333 10.8333333,8.0175 10.8333333,9.16666667 C10.8333333,10.3158333 9.89833333,11.25 8.75,11.25 Z" id="Shape"></path>
                <circle id="Oval" cx="41.6666667" cy="7.91666667" r="1"></circle>
                <circle id="Oval" cx="38.3333333" cy="7.91666667" r="1"></circle>
                <circle id="Oval" cx="43.3333333" cy="10.4166667" r="1"></circle>
                <circle id="Oval" cx="40" cy="10.4166667" r="1"></circle>
                <circle id="Oval" cx="35" cy="7.91666667" r="1"></circle>
                <circle id="Oval" cx="36.6666667" cy="10.4166667" r="1"></circle>
                <circle id="Oval" cx="31.6666667" cy="7.91666667" r="1"></circle>
                <circle id="Oval" cx="33.3333333" cy="10.4166667" r="1"></circle>
                <circle id="Oval" cx="28.3333333" cy="7.91666667" r="1"></circle>
                <circle id="Oval" cx="30" cy="10.4166667" r="1"></circle>
                <path d="M50,14.0766667 L50,4.25666667 C50,2.13916667 48.2775,0.416666667 46.16,0.416666667 L3.84,0.416666667 C1.7225,0.416666667 0,2.13916667 0,4.25666667 L0,14.0758333 C0,15.3 0.585833333,16.3791667 1.48083333,17.0825 C0.585833333,17.7866667 0,18.8666667 0,20.09 L0,29.9091667 C0,31.1333333 0.585833333,32.2125 1.48083333,32.9158333 C0.585833333,33.62 0,34.7 0,35.9233333 L0,45.7425 C0,47.8608333 1.7225,49.5833333 3.84,49.5833333 L46.1591667,49.5833333 C48.2766667,49.5833333 49.9991667,47.8608333 49.9991667,45.7433333 L49.9991667,35.9233333 C49.9991667,34.6991667 49.4133333,33.62 48.5183333,32.9166667 C49.4141667,32.2133333 50,31.1333333 50,29.91 L50,20.09 C50,18.8658333 49.4141667,17.7866667 48.5191667,17.0833333 C49.4141667,16.38 50,15.3 50,14.0766667 Z M48.3333333,35.9233333 L48.3333333,45.7425 C48.3333333,46.9408333 47.3583333,47.9158333 46.16,47.9158333 L3.84,47.9158333 C2.64166667,47.9166667 1.66666667,46.9416667 1.66666667,45.7433333 L1.66666667,35.9233333 C1.66666667,34.725 2.64166667,33.75 3.84,33.75 L46.1591667,33.75 C47.3583333,33.75 48.3333333,34.725 48.3333333,35.9233333 Z M48.3333333,20.09 L48.3333333,29.9091667 C48.3333333,31.1075 47.3583333,32.0825 46.16,32.0825 L3.84,32.0825 C2.64166667,32.0833333 1.66666667,31.1083333 1.66666667,29.91 L1.66666667,20.09 C1.66666667,18.8916667 2.64166667,17.9166667 3.84,17.9166667 L46.1591667,17.9166667 C47.3583333,17.9166667 48.3333333,18.8916667 48.3333333,20.09 Z M3.84,16.25 C2.64166667,16.25 1.66666667,15.275 1.66666667,14.0766667 L1.66666667,4.25666667 C1.66666667,3.05833333 2.64166667,2.08333333 3.84,2.08333333 L46.1591667,2.08333333 C47.3583333,2.08333333 48.3333333,3.05833333 48.3333333,4.25666667 L48.3333333,14.0758333 C48.3333333,15.2741667 47.3583333,16.2491667 46.16,16.2491667 L3.84,16.2491667 L3.84,16.25 Z" id="Shape"></path>
                <path d="M8.75,28.75 C10.8175,28.75 12.5,27.0675 12.5,25 C12.5,22.9325 10.8175,21.25 8.75,21.25 C6.6825,21.25 5,22.9325 5,25 C5,27.0675 6.6825,28.75 8.75,28.75 Z M8.75,22.9166667 C9.89833333,22.9166667 10.8333333,23.8508333 10.8333333,25 C10.8333333,26.1491667 9.89833333,27.0833333 8.75,27.0833333 C7.60166667,27.0833333 6.66666667,26.1491667 6.66666667,25 C6.66666667,23.8508333 7.60166667,22.9166667 8.75,22.9166667 Z" id="Shape"></path>
                <circle id="Oval" cx="41.6666667" cy="23.75" r="1"></circle>
                <circle id="Oval" cx="38.3333333" cy="23.75" r="1"></circle>
                <circle id="Oval" cx="43.3333333" cy="26.25" r="1"></circle>
                <circle id="Oval" cx="40" cy="26.25" r="1"></circle>
                <circle id="Oval" cx="35" cy="23.75" r="1"></circle>
                <circle id="Oval" cx="36.6666667" cy="26.25" r="1"></circle>
                <circle id="Oval" cx="31.6666667" cy="23.75" r="1"></circle>
                <circle id="Oval" cx="33.3333333" cy="26.25" r="1"></circle>
                <circle id="Oval" cx="28.3333333" cy="23.75" r="1"></circle>
                <circle id="Oval" cx="30" cy="26.25" r="1"></circle>
                <path d="M8.75,44.5833333 C10.8175,44.5833333 12.5,42.9008333 12.5,40.8333333 C12.5,38.7658333 10.8175,37.0833333 8.75,37.0833333 C6.6825,37.0833333 5,38.7658333 5,40.8333333 C5,42.9008333 6.6825,44.5833333 8.75,44.5833333 Z M8.75,38.75 C9.89833333,38.75 10.8333333,39.6841667 10.8333333,40.8333333 C10.8333333,41.9825 9.89833333,42.9166667 8.75,42.9166667 C7.60166667,42.9166667 6.66666667,41.9825 6.66666667,40.8333333 C6.66666667,39.6841667 7.60166667,38.75 8.75,38.75 Z" id="Shape"></path>
                <circle id="Oval" cx="41.6666667" cy="39.5833333" r="1"></circle>
                <circle id="Oval" cx="38.3333333" cy="39.5833333" r="1"></circle>
                <circle id="Oval" cx="43.3333333" cy="42.0833333" r="1"></circle>
                <circle id="Oval" cx="40" cy="42.0833333" r="1"></circle>
                <circle id="Oval" cx="35" cy="39.5833333" r="1"></circle>
                <circle id="Oval" cx="36.6666667" cy="42.0833333" r="1"></circle>
                <circle id="Oval" cx="31.6666667" cy="39.5833333" r="1"></circle>
                <circle id="Oval" cx="33.3333333" cy="42.0833333" r="1"></circle>
                <circle id="Oval" cx="28.3333333" cy="39.5833333" r="1"></circle>
                <circle id="Oval" cx="30" cy="42.0833333" r="1"></circle>
            </g>
        </g>
    </g>
</svg>