<?xml version="1.0" encoding="UTF-8"?>
<svg width="50px" height="50px" viewBox="0 0 50 50" version="1.1" xmlns="http://www.w3.org/2000/svg" xmlns:xlink="http://www.w3.org/1999/xlink">
    <g id="Symbols" stroke="none" stroke-width="1" fill="none" fill-rule="evenodd">
        <g id="icon-tools" fill-rule="nonzero" fill="currentcolor">
            <g id="008-wrench">
                <path d="M47.9159043,4.54298246 L44.9278193,1.54434698 C42.9791442,-0.411208577 39.6956111,-0.524951267 37.6080502,1.29093567 L32.3565146,5.85916179 C32.2893055,5.91764133 32.2316144,5.98645224 32.1857724,6.06296296 L27.0737053,14.6083821 L23.7913377,15.7063353 C23.5139546,15.7991228 23.3042661,16.0294347 23.2371541,16.3149123 C23.1700421,16.6003899 23.2549276,16.9003899 23.4616053,17.1078947 L32.4071156,26.0848928 C32.5671743,26.2454191 32.7824959,26.3327485 33.0035477,26.3327485 C33.0681345,26.3327485 33.1331098,26.3253411 33.197308,26.3101365 C33.4817812,26.2427875 33.7112828,26.0323587 33.8037438,25.7539961 L34.8981253,22.4589669 L43.5386696,17.2230994 C43.6147169,17.1769006 43.6830914,17.1191033 43.741171,17.051462 L48.1855177,11.8829435 C49.9849148,9.79054581 49.8638025,6.49785575 47.9159043,4.54298246 Z M46.908545,10.7769981 L42.5519003,15.8434698 L33.7603299,21.1708577 C33.5887136,21.2748538 33.4596372,21.4368421 33.3962159,21.6278752 L32.6350632,23.9194932 L30.6192762,21.8965887 C30.6188877,21.8961988 30.6185963,21.8957115 30.6182078,21.8953216 L27.6362415,18.9030214 C27.6359502,18.902729 27.6355617,18.9025341 27.6352703,18.9022417 L25.619289,16.8791423 L27.9028441,16.1153021 C28.0937878,16.0513645 28.2556918,15.9211501 28.3592248,15.7480507 L33.5628789,7.04990253 L38.712921,2.56998051 C40.1457761,1.32339181 42.3986403,1.40019493 43.7349551,2.741423 L46.7231373,5.74005848 C48.0601319,7.08157895 48.1432692,9.34122807 46.908545,10.7769981 Z" id="Shape"></path>
                <path d="M45.5250284,34.0079922 C43.0487814,31.5230994 39.4042423,30.6593567 36.1021587,31.7336257 L18.1779219,13.7461014 C19.2483141,10.4323587 18.3876104,6.7748538 15.9115576,4.28986355 C13.3028349,1.67212476 9.39742349,0.853216374 5.96179586,2.20448343 C5.69694154,2.30867446 5.50211288,2.53986355 5.44393623,2.81939571 C5.38575957,3.09883041 5.47190764,3.38898635 5.67314642,3.59093567 L11.0383159,8.97495127 L7.46001466,12.5657895 L2.09494228,7.18167641 C1.89360638,6.97982456 1.60485981,6.89356725 1.32611691,6.95165692 C1.04756826,7.01003899 0.817095474,7.20545809 0.713368151,7.47134503 C-0.632950339,10.9189084 0.182785413,14.8382066 2.79141103,17.4562378 C5.26765805,19.9411306 8.91219718,20.8050682 12.2142807,19.7306043 L18.9165421,26.4565302 L10.5700861,34.8326511 L5.26153931,37.8112086 C5.11391241,37.8940546 4.99445116,38.0195906 4.91879238,38.1714425 L2.53335532,42.9591618 C2.37096573,43.2849903 2.43458127,43.6785575 2.69127726,43.9362573 L5.67304929,46.928655 C5.83495327,47.0911306 6.05085761,47.1765107 6.26967565,47.1765107 C6.39778083,47.1765107 6.52685725,47.147271 6.64670698,47.0871345 L11.4175811,44.6932749 C11.5688987,44.6173489 11.693993,44.4974659 11.7765476,44.3493177 L14.7446253,39.0219298 L23.0912754,30.6461014 L30.1386146,37.7183236 C29.0681253,41.0320663 29.9289261,44.6895712 32.405076,47.1745614 C34.1788327,48.9544834 36.551838,49.9026316 38.9692285,49.9026316 C40.1071211,49.9025341 41.2551145,49.6923977 42.3547407,49.260039 C42.619595,49.155848 42.8144237,48.9246589 42.8726003,48.6451267 C42.930777,48.365692 42.8446289,48.0755361 42.6433901,47.8735867 L37.2782206,42.4894737 L40.8564248,38.8987329 L46.2214972,44.2827485 C46.4227359,44.4846979 46.7116767,44.571345 46.9903225,44.512768 C47.2688712,44.454386 47.499344,44.2589669 47.6030713,43.9930799 C48.9494869,40.5453216 48.1337511,36.6260234 45.5250284,34.0079922 Z M13.4690123,37.9078947 C13.4141378,37.962963 13.3672274,38.0253411 13.3293495,38.0933723 L10.4309089,43.2957115 L6.43604728,45.3001949 L4.31391057,43.1705653 L6.31124427,39.161501 L11.4951823,36.252924 C11.5629742,36.2149123 11.6251329,36.1678363 11.6800073,36.112768 L20.109212,27.6537037 L21.8983141,29.4491228 L13.4690123,37.9078947 Z M46.4111783,42.0789474 L41.4528569,37.1031189 C41.1234158,36.7727096 40.5895309,36.7727096 40.2600898,37.1031189 L35.4892157,41.8908382 C35.3310995,42.0496101 35.242232,42.2648148 35.242232,42.4893762 C35.242232,42.7139376 35.3310995,42.9290448 35.4892157,43.0879142 L40.4476342,48.0638402 C37.9890636,48.5540936 35.4107403,47.7968811 33.5978431,45.9775828 C31.4633718,43.835575 30.7958457,40.62846 31.8975115,37.8073099 C32.0197893,37.4940546 31.9456844,37.1379142 31.7087044,36.9 L13.0297251,18.1551657 C12.868501,17.9934698 12.6527909,17.9073099 12.4330988,17.9073099 C12.3297599,17.9073099 12.2254499,17.9264133 12.1256075,17.965692 C9.31448048,19.071345 6.11864944,18.4012671 3.984081,16.2594542 C2.17108668,14.439961 1.41644127,11.8524366 1.90526113,9.38538012 L6.86358255,14.361306 C7.19302364,14.6918129 7.72690856,14.6916179 8.05634964,14.361306 L12.8272237,9.57358674 C13.1565677,9.24298246 13.1565677,8.70721248 12.8272237,8.37660819 L7.86890233,3.40068226 C10.327473,2.90945419 12.905602,3.66734893 14.7186934,5.48693957 C16.8531647,7.62894737 17.5206909,10.8360624 16.4190251,13.6572125 C16.2967473,13.9704678 16.3708521,14.3266082 16.6078321,14.5645224 L35.2866172,33.3091618 C35.5237915,33.5469786 35.878873,33.621345 36.1907348,33.4986355 C39.0020561,32.3933723 42.1976929,33.062963 44.3322613,35.2048733 C46.1454499,37.0243665 46.899901,39.6119883 46.4111783,42.0789474 Z" id="Shape"></path>
            </g>
        </g>
    </g>
</svg>