<?xml version="1.0" encoding="UTF-8"?>
<svg width="47px" height="50px" viewBox="0 0 47 50" version="1.1" xmlns="http://www.w3.org/2000/svg" xmlns:xlink="http://www.w3.org/1999/xlink">
    <!-- Generator: Sketch 45 (43475) - http://www.bohemiancoding.com/sketch -->
    <title>icon-database</title>
    <desc>Created with Sketch.</desc>
    <defs></defs>
    <g id="Symbols" stroke="none" stroke-width="1" fill="none" fill-rule="evenodd">
        <g id="icon-database" fill-rule="nonzero" fill="#000000">
            <g id="012-database">
                <path d="M45.7763636,7.73636364 C44.7236364,3.83636364 36.8881818,0 23.1818182,0 C9.47545455,0 1.63909091,3.83636364 0.587272727,7.73636364 C0.510909091,7.87 0.454545455,8.01636364 0.454545455,8.18181818 L0.454545455,8.63636364 L0.454545455,19.0909091 L0.454545455,19.5454545 L0.454545455,20 L0.454545455,30 L0.454545455,30.4545455 L0.454545455,30.9090909 L0.454545455,41.8181818 C0.454545455,41.9654545 0.493636364,42.1045455 0.560909091,42.2281818 C1.63454545,46.6781818 11.24,50 23.1818182,50 C35.0963636,50 44.6863636,46.6918182 45.7954545,42.2581818 C45.8681818,42.1281818 45.9090909,41.9781818 45.9090909,41.8181818 L45.9090909,30.9090909 L45.9090909,30.4545455 L45.9090909,30 L45.9090909,20 L45.9090909,19.5454545 L45.9090909,19.0909091 L45.9090909,8.63636364 L45.9090909,8.18181818 C45.9090909,8.01636364 45.8527273,7.87 45.7763636,7.73636364 Z M44.0190909,30.8954545 C43.9936364,31.0054545 43.9581818,31.1145455 43.9136364,31.2254545 C43.8772727,31.3154545 43.8327273,31.4054545 43.7836364,31.4954545 C43.7227273,31.6072727 43.6545455,31.7190909 43.5736364,31.8309091 C43.5136364,31.9154545 43.4454545,31.9990909 43.3745455,32.0827273 C43.2736364,32.2018182 43.1663636,32.3209091 43.0445455,32.4390909 C42.9709091,32.5109091 42.89,32.5818182 42.8081818,32.6536364 C42.6590909,32.7836364 42.5036364,32.9127273 42.33,33.0409091 C42.2554545,33.0963636 42.1754545,33.15 42.0963636,33.2045455 C41.8909091,33.3463636 41.6763636,33.4872727 41.4409091,33.6254545 C41.3790909,33.6627273 41.3127273,33.6981818 41.2481818,33.7345455 C40.9772727,33.8872727 40.6945455,34.0390909 40.3890909,34.1863636 C40.35,34.2054545 40.3090909,34.2236364 40.2690909,34.2418182 C39.9281818,34.4027273 39.5718182,34.5609091 39.1909091,34.7136364 C39.18,34.7181818 39.1690909,34.7218182 39.1581818,34.7263636 C37.0936364,35.5509091 34.4527273,36.2445455 31.3754545,36.6990909 C31.36,36.7009091 31.3445455,36.7027273 31.3290909,36.7054545 C30.7309091,36.7936364 30.1172727,36.8718182 29.4872727,36.9409091 C29.3845455,36.9518182 29.2763636,36.9590909 29.1727273,36.97 C28.6227273,37.0272727 28.0663636,37.08 27.4936364,37.1218182 C27.2318182,37.1409091 26.9572727,37.15 26.6909091,37.1663636 C26.26,37.1918182 25.8336364,37.22 25.3918182,37.2354545 C24.67,37.2581818 23.9336364,37.2727273 23.1818182,37.2727273 C22.43,37.2727273 21.6936364,37.2581818 20.9709091,37.2327273 C20.5290909,37.2172727 20.1027273,37.1881818 19.6718182,37.1636364 C19.4054545,37.1481818 19.1309091,37.1381818 18.8690909,37.1190909 C18.2963636,37.0772727 17.74,37.0245455 17.19,36.9672727 C17.0863636,36.9563636 16.9781818,36.9490909 16.8754545,36.9381818 C16.2454545,36.8690909 15.6318182,36.79 15.0336364,36.7027273 C15.0181818,36.7009091 15.0027273,36.6990909 14.9872727,36.6963636 C11.91,36.2418182 9.26909091,35.5481818 7.20454545,34.7236364 C7.19363636,34.72 7.18272727,34.7154545 7.17181818,34.7109091 C6.79090909,34.5581818 6.43363636,34.4 6.09363636,34.2390909 C6.05454545,34.22 6.01272727,34.2018182 5.97363636,34.1836364 C5.66818182,34.0363636 5.38545455,33.8854545 5.11454545,33.7318182 C5.05090909,33.6954545 4.98363636,33.66 4.92181818,33.6227273 C4.68636364,33.4845455 4.47181818,33.3436364 4.26636364,33.2018182 C4.18818182,33.1472727 4.10727273,33.0936364 4.03272727,33.0381818 C3.85909091,32.91 3.70363636,32.7809091 3.55454545,32.6509091 C3.47363636,32.58 3.39181818,32.5090909 3.31818182,32.4363636 C3.19636364,32.3181818 3.08909091,32.2 2.98818182,32.08 C2.91727273,31.9963636 2.84909091,31.9127273 2.78909091,31.8281818 C2.70909091,31.7163636 2.64090909,31.6045455 2.57909091,31.4927273 C2.53,31.4027273 2.48636364,31.3127273 2.44909091,31.2227273 C2.40454545,31.1127273 2.36909091,31.0027273 2.34363636,30.8927273 C2.31,30.7481818 2.27272727,30.6009091 2.27272727,30.4545455 C2.27272727,30.3518182 2.28454545,30.2490909 2.30090909,30.1472727 C2.32363636,30.01 2.31090909,29.8727273 2.27272727,29.7427273 L2.27272727,22.9936364 C2.29818182,23.0172727 2.33,23.04 2.35636364,23.0636364 C2.55454545,23.2381818 2.75636364,23.4118182 2.98363636,23.5790909 C6.40818182,26.1690909 13.2563636,28.1818182 23.1818182,28.1818182 C33.0654545,28.1818182 39.8963636,26.1854545 43.3354545,23.6109091 C43.61,23.4109091 43.8572727,23.2045455 44.09,22.9945455 L44.0909091,22.9936364 L44.0909091,29.7427273 C44.0527273,29.8727273 44.04,30.01 44.0627273,30.1472727 C44.08,30.2490909 44.0909091,30.3518182 44.0909091,30.4545455 C44.0909091,30.6009091 44.0536364,30.7481818 44.0190909,30.8954545 Z M44.0909091,12.0845455 L44.0909091,18.8336364 C44.0527273,18.9636364 44.04,19.1009091 44.0627273,19.2381818 C44.08,19.34 44.0909091,19.4427273 44.0909091,19.5454545 C44.0909091,19.6918182 44.0536364,19.8390909 44.0190909,19.9863636 C43.9936364,20.0963636 43.9581818,20.2054545 43.9136364,20.3163636 C43.8772727,20.4063636 43.8327273,20.4963636 43.7836364,20.5863636 C43.7227273,20.6981818 43.6545455,20.81 43.5736364,20.9218182 C43.5136364,21.0063636 43.4454545,21.09 43.3745455,21.1736364 C43.2736364,21.2927273 43.1663636,21.4118182 43.0445455,21.53 C42.9709091,21.6018182 42.89,21.6727273 42.8081818,21.7445455 C42.6590909,21.8745455 42.5036364,22.0036364 42.33,22.1318182 C42.2554545,22.1872727 42.1754545,22.2409091 42.0963636,22.2954545 C41.8909091,22.4372727 41.6763636,22.5781818 41.4409091,22.7163636 C41.3790909,22.7536364 41.3127273,22.7890909 41.2481818,22.8254545 C40.9772727,22.9781818 40.6945455,23.13 40.3890909,23.2772727 C40.35,23.2963636 40.3090909,23.3145455 40.2690909,23.3327273 C39.9281818,23.4936364 39.5718182,23.6518182 39.1909091,23.8045455 C39.18,23.8090909 39.1690909,23.8127273 39.1581818,23.8172727 C37.0936364,24.6418182 34.4527273,25.3354545 31.3754545,25.79 C31.36,25.7918182 31.3445455,25.7936364 31.3290909,25.7963636 C30.7309091,25.8845455 30.1172727,25.9627273 29.4872727,26.0318182 C29.3845455,26.0427273 29.2763636,26.05 29.1727273,26.0609091 C28.6227273,26.1181818 28.0663636,26.1709091 27.4936364,26.2127273 C27.2318182,26.2318182 26.9572727,26.2409091 26.6909091,26.2572727 C26.26,26.2827273 25.8336364,26.3109091 25.3918182,26.3263636 C24.67,26.3490909 23.9336364,26.3636364 23.1818182,26.3636364 C22.43,26.3636364 21.6936364,26.3490909 20.9709091,26.3236364 C20.5290909,26.3081818 20.1027273,26.2790909 19.6718182,26.2545455 C19.4054545,26.2390909 19.1309091,26.2290909 18.8690909,26.21 C18.2963636,26.1681818 17.74,26.1154545 17.19,26.0581818 C17.0863636,26.0472727 16.9781818,26.04 16.8754545,26.0290909 C16.2454545,25.96 15.6318182,25.8809091 15.0336364,25.7936364 C15.0181818,25.7918182 15.0027273,25.79 14.9872727,25.7872727 C11.91,25.3327273 9.26909091,24.6390909 7.20454545,23.8145455 C7.19363636,23.8109091 7.18272727,23.8063636 7.17181818,23.8018182 C6.79090909,23.6490909 6.43363636,23.4909091 6.09363636,23.33 C6.05454545,23.3109091 6.01272727,23.2927273 5.97363636,23.2745455 C5.66818182,23.1272727 5.38545455,22.9763636 5.11454545,22.8227273 C5.05090909,22.7863636 4.98363636,22.7509091 4.92181818,22.7136364 C4.68636364,22.5754545 4.47181818,22.4345455 4.26636364,22.2927273 C4.18818182,22.2381818 4.10727273,22.1845455 4.03272727,22.1290909 C3.85909091,22.0009091 3.70363636,21.8718182 3.55454545,21.7418182 C3.47363636,21.6709091 3.39181818,21.6 3.31818182,21.5272727 C3.19636364,21.4090909 3.08909091,21.2909091 2.98818182,21.1709091 C2.91727273,21.0872727 2.84909091,21.0036364 2.78909091,20.9190909 C2.70909091,20.8072727 2.64090909,20.6954545 2.57909091,20.5836364 C2.53,20.4936364 2.48636364,20.4036364 2.44909091,20.3136364 C2.40454545,20.2036364 2.36909091,20.0936364 2.34363636,19.9836364 C2.31,19.8390909 2.27272727,19.6918182 2.27272727,19.5454545 C2.27272727,19.4427273 2.28454545,19.34 2.30090909,19.2381818 C2.32363636,19.1009091 2.31090909,18.9636364 2.27272727,18.8336364 L2.27272727,12.0845455 C2.38181818,12.1836364 2.50636364,12.2809091 2.62454545,12.3790909 C2.69,12.4336364 2.75090909,12.4881818 2.82,12.5427273 C3.09272727,12.7572727 3.38727273,12.9690909 3.70636364,13.1754545 C3.77272727,13.2181818 3.84727273,13.26 3.91636364,13.3027273 C4.18363636,13.4690909 4.46636364,13.6318182 4.76363636,13.7918182 C4.87363636,13.8509091 4.98363636,13.9090909 5.09727273,13.9672727 C5.42909091,14.1363636 5.77727273,14.3009091 6.14363636,14.46 C6.20363636,14.4863636 6.25818182,14.5136364 6.31909091,14.5390909 C6.74545455,14.72 7.19818182,14.8927273 7.66909091,15.06 C7.79909091,15.1063636 7.93545455,15.15 8.06909091,15.1954545 C8.44363636,15.3218182 8.83090909,15.4427273 9.23181818,15.56 C9.37636364,15.6018182 9.51818182,15.6454545 9.66636364,15.6854545 C10.1981818,15.8327273 10.7472727,15.9727273 11.3236364,16.1018182 C11.4027273,16.12 11.4881818,16.1345455 11.5681818,16.1518182 C12.0763636,16.2627273 12.6036364,16.3654545 13.1454545,16.4618182 C13.3290909,16.4945455 13.5154545,16.5254545 13.7027273,16.5563636 C14.2181818,16.6409091 14.7490909,16.7181818 15.2936364,16.7890909 C15.4336364,16.8072727 15.5672727,16.8281818 15.7090909,16.8454545 C16.3854545,16.9272727 17.0854545,16.9972727 17.8045455,17.0572727 C17.9818182,17.0718182 18.1663636,17.0827273 18.3463636,17.0954545 C18.9218182,17.1372727 19.51,17.1718182 20.1118182,17.1990909 C20.3309091,17.2090909 20.5490909,17.2190909 20.7727273,17.2272727 C21.5563636,17.2536364 22.3545455,17.2727273 23.1818182,17.2727273 C24.0090909,17.2727273 24.8072727,17.2536364 25.5909091,17.2272727 C25.8136364,17.2190909 26.0318182,17.2090909 26.2518182,17.1990909 C26.8536364,17.1718182 27.4418182,17.1372727 28.0172727,17.0954545 C28.1972727,17.0818182 28.3809091,17.0718182 28.5590909,17.0572727 C29.2781818,16.9981818 29.9781818,16.9272727 30.6545455,16.8454545 C30.7963636,16.8281818 30.93,16.8072727 31.07,16.7890909 C31.6145455,16.7181818 32.1445455,16.6409091 32.6609091,16.5563636 C32.8481818,16.5254545 33.0345455,16.4945455 33.2181818,16.4618182 C33.76,16.3654545 34.2872727,16.2627273 34.7954545,16.1518182 C34.8754545,16.1345455 34.9609091,16.1190909 35.04,16.1018182 C35.6163636,15.9727273 36.1654545,15.8318182 36.6972727,15.6854545 C36.8454545,15.6445455 36.9872727,15.6018182 37.1318182,15.56 C37.5327273,15.4427273 37.92,15.3218182 38.2945455,15.1954545 C38.4281818,15.15 38.5645455,15.1063636 38.6945455,15.06 C39.1654545,14.8927273 39.6190909,14.72 40.0445455,14.5390909 C40.1054545,14.5136364 40.16,14.4863636 40.22,14.46 C40.5863636,14.3 40.9345455,14.1363636 41.2663636,13.9672727 C41.38,13.9090909 41.4909091,13.8509091 41.6,13.7918182 C41.8972727,13.6327273 42.18,13.47 42.4472727,13.3027273 C42.5163636,13.26 42.5909091,13.2181818 42.6572727,13.1754545 C42.9763636,12.9690909 43.2709091,12.7581818 43.5436364,12.5427273 C43.6118182,12.4881818 43.6727273,12.4336364 43.7390909,12.3790909 C43.8572727,12.2809091 43.9818182,12.1836364 44.0909091,12.0845455 Z M23.1818182,1.81818182 C35.5045455,1.81818182 44.0909091,5.41090909 44.0909091,8.63636364 C44.0909091,11.8618182 35.5045455,15.4545455 23.1818182,15.4545455 C10.8590909,15.4545455 2.27272727,11.8618182 2.27272727,8.63636364 C2.27272727,5.41090909 10.8590909,1.81818182 23.1818182,1.81818182 Z M44.0909091,41.5481818 C44.0781818,41.5881818 44.0690909,41.6290909 44.0618182,41.6709091 C43.5463636,44.8154545 35.0327273,48.1818182 23.1818182,48.1818182 C11.3309091,48.1818182 2.81727273,44.8154545 2.30181818,41.6709091 C2.29454545,41.63 2.28454545,41.59 2.27272727,41.5518182 L2.27272727,33.9027273 C2.29818182,33.9263636 2.33,33.9490909 2.35636364,33.9727273 C2.55454545,34.1472727 2.75636364,34.3209091 2.98363636,34.4881818 C6.40818182,37.0781818 13.2563636,39.0909091 23.1818182,39.0909091 C33.0654545,39.0909091 39.8963636,37.0945455 43.3354545,34.52 C43.61,34.32 43.8572727,34.1136364 44.09,33.9036364 L44.0909091,33.9027273 L44.0909091,41.5481818 Z" id="Shape"></path>
            </g>
        </g>
    </g>
</svg>