<svg width="51px" height="50px" viewBox="0 0 51 50" version="1.1" xmlns="http://www.w3.org/2000/svg" xmlns:xlink="http://www.w3.org/1999/xlink">
    <g id="Symbols" stroke="none" stroke-width="1" fill="none" fill-rule="evenodd">
        <g fill-rule="nonzero" fill="#000000">
            <g transform="translate(0.655172, 0.000000)">
                <path d="M5.83333333,43.3333333 C2.6175,43.3333333 0,45.9508333 0,49.1666667 C0,49.6275 0.3725,50 0.833333333,50 L10.8333333,50 C11.2941667,50 11.6666667,49.6275 11.6666667,49.1666667 C11.6666667,45.9508333 9.04916667,43.3333333 5.83333333,43.3333333 Z M1.75083333,48.3333333 C2.0825,46.7041667 3.37083333,45.4241667 5,45.0916667 L5,46.6666667 L6.66666667,46.6666667 L6.66666667,45.0916667 C8.29583333,45.425 9.58416667,46.7041667 9.91583333,48.3333333 L1.75083333,48.3333333 Z" id="Shape"></path>
                <path d="M49.1666667,35.8333333 L47.705,35.8333333 C47.6591667,35.7175 47.6116667,35.6025 47.56,35.4866667 L48.5941667,34.4525 C48.92,34.1266667 48.92,33.6 48.5941667,33.2741667 L45.0591667,29.7391667 C44.8866667,29.5666667 44.6591667,29.4916667 44.4333333,29.5025 C45.7541667,28.8016667 46.6666667,27.4291667 46.6666667,25.8333333 L46.6666667,4.16666667 C46.6666667,1.86916667 44.7975,0 42.5,0 L4.16666667,0 C1.86916667,0 0,1.86916667 0,4.16666667 L0,25.8333333 C0,28.1308333 1.86916667,30 4.16666667,30 L15.0416667,30 L11.8933333,35.8333333 L11.6666667,35.8333333 L10.4166667,35.8333333 C8.80833333,35.8333333 7.5,37.1416667 7.5,38.75 C7.5,40.3583333 8.80833333,41.6666667 10.4166667,41.6666667 L28.3333333,41.6666667 C28.3333333,42.1275 28.7058333,42.5 29.1666667,42.5 L30.6283333,42.5 C30.6741667,42.6158333 30.7216667,42.7308333 30.7733333,42.8466667 L29.7391667,43.8808333 C29.4133333,44.2066667 29.4133333,44.7333333 29.7391667,45.0591667 L33.2741667,48.5941667 C33.6,48.92 34.1266667,48.92 34.4525,48.5941667 L35.4866667,47.56 C35.6025,47.6116667 35.7175,47.6591667 35.8333333,47.705 L35.8333333,49.1666667 C35.8333333,49.6275 36.2058333,50 36.6666667,50 L41.6666667,50 C42.1275,50 42.5,49.6275 42.5,49.1666667 L42.5,47.705 C42.6158333,47.6591667 42.7308333,47.6116667 42.8466667,47.56 L43.8808333,48.5941667 C44.2066667,48.92 44.7333333,48.92 45.0591667,48.5941667 L48.5941667,45.0591667 C48.92,44.7333333 48.92,44.2066667 48.5941667,43.8808333 L47.56,42.8466667 C47.6116667,42.7308333 47.6591667,42.6158333 47.705,42.5 L49.1666667,42.5 C49.6275,42.5 50,42.1275 50,41.6666667 L50,36.6666667 C50,36.2058333 49.6275,35.8333333 49.1666667,35.8333333 Z M1.66666667,4.16666667 C1.66666667,2.78833333 2.78833333,1.66666667 4.16666667,1.66666667 L42.5,1.66666667 C43.8783333,1.66666667 45,2.78833333 45,4.16666667 L45,21.6666667 L1.66666667,21.6666667 L1.66666667,4.16666667 Z M4.16666667,28.3333333 C2.78833333,28.3333333 1.66666667,27.2116667 1.66666667,25.8333333 L1.66666667,23.3333333 L45,23.3333333 L45,25.8333333 C45,27.2116667 43.8783333,28.3333333 42.5,28.3333333 L41.6666667,28.3333333 L36.6666667,28.3333333 L30.2283333,28.3333333 L16.4383333,28.3333333 L4.16666667,28.3333333 Z M43.87,29.75 L42.8466667,30.7733333 C42.7308333,30.7216667 42.6158333,30.6741667 42.5,30.6283333 L42.5,30 C42.9825,30 43.4383333,29.9016667 43.87,29.75 Z M35.8333333,30 L35.8333333,30.6283333 C35.7175,30.6741667 35.6025,30.7216667 35.4866667,30.7733333 L34.7133333,30 L35.8333333,30 Z M33.0125,30 L32.2941667,30.7183333 L31.805,30 L33.0125,30 Z M28.3333333,40 L10.4166667,40 C9.7275,40 9.16666667,39.4391667 9.16666667,38.75 C9.16666667,38.0608333 9.7275,37.5 10.4166667,37.5 L11.6666667,37.5 L12.39,37.5 L28.3333333,37.5 L28.3333333,40 Z M13.7870833,35.8325 L16.935,30 L29.7883333,30 L31.095,31.9175 L29.7391667,33.2733333 C29.4133333,33.5991667 29.4133333,34.1258333 29.7391667,34.4516667 L30.7733333,35.4858333 C30.7216667,35.6016667 30.6741667,35.7166667 30.6283333,35.8325 L29.1666667,35.8325 L13.7870833,35.8325 Z M48.3333333,40.8333333 L47.1175,40.8333333 C46.7533333,40.8333333 46.4325,41.0691667 46.3225,41.4158333 C46.1958333,41.8183333 46.025,42.2283333 45.8141667,42.6316667 C45.6458333,42.955 45.7066667,43.3491667 45.9641667,43.6066667 L46.8275,44.47 L44.4708333,46.8266667 L43.6075,45.9633333 C43.3491667,45.7058333 42.9558333,45.6458333 42.6325,45.8133333 C42.2291667,46.0241667 41.8191667,46.195 41.4166667,46.3216667 C41.0691667,46.4325 40.8333333,46.7533333 40.8333333,47.1175 L40.8333333,48.3333333 L37.5,48.3333333 L37.5,47.1175 C37.5,46.7533333 37.2641667,46.4325 36.9175,46.3225 C36.515,46.1958333 36.105,46.025 35.7016667,45.8141667 C35.3783333,45.6466667 34.9841667,45.7066667 34.7266667,45.9641667 L33.8633333,46.8275 L31.5066667,44.4708333 L32.37,43.6075 C32.6275,43.35 32.6883333,42.9558333 32.52,42.6325 C32.3091667,42.2291667 32.1383333,41.8191667 32.0116667,41.4166667 C31.9008333,41.0691667 31.58,40.8333333 31.2158333,40.8333333 L30,40.8333333 L30,37.5 L31.2158333,37.5 C31.58,37.5 31.9008333,37.2641667 32.0108333,36.9175 C32.1375,36.515 32.3083333,36.105 32.5191667,35.7016667 C32.6875,35.3783333 32.6266667,34.9841667 32.3691667,34.7266667 L31.5058333,33.8633333 L33.8625,31.5066667 L34.7258333,32.37 C34.9833333,32.6283333 35.3775,32.6883333 35.7008333,32.52 C36.1041667,32.3091667 36.5141667,32.1383333 36.9166667,32.0116667 C37.2641667,31.9008333 37.5,31.58 37.5,31.2158333 L37.5,30 L40.8333333,30 L40.8333333,31.2158333 C40.8333333,31.58 41.0691667,31.9008333 41.4158333,32.0108333 C41.8183333,32.1375 42.2283333,32.3083333 42.6316667,32.5191667 C42.955,32.6875 43.3483333,32.6275 43.6066667,32.3691667 L44.47,31.5058333 L46.8266667,33.8625 L45.9633333,34.7258333 C45.7058333,34.9833333 45.645,35.3775 45.8133333,35.7008333 C46.0241667,36.1041667 46.195,36.5141667 46.3216667,36.9166667 C46.4325,37.2641667 46.7533333,37.5 47.1175,37.5 L48.3333333,37.5 L48.3333333,40.8333333 Z" id="Shape"></path>
                <path d="M39.1666667,34.1666667 C36.4091667,34.1666667 34.1666667,36.4091667 34.1666667,39.1666667 C34.1666667,41.9241667 36.4091667,44.1666667 39.1666667,44.1666667 C41.9241667,44.1666667 44.1666667,41.9241667 44.1666667,39.1666667 C44.1666667,36.4091667 41.9241667,34.1666667 39.1666667,34.1666667 Z M39.1666667,42.5 C37.3283333,42.5 35.8333333,41.005 35.8333333,39.1666667 C35.8333333,37.3283333 37.3283333,35.8333333 39.1666667,35.8333333 C41.005,35.8333333 42.5,37.3283333 42.5,39.1666667 C42.5,41.005 41.005,42.5 39.1666667,42.5 Z" id="Shape"></path>
                <path d="M16.4225,6.4225 L15.2441667,5.24416667 L9.41083333,11.0775 C9.085,11.4033333 9.085,11.93 9.41083333,12.2558333 L15.2441667,18.0891667 L16.4225,16.9108333 L11.1783333,11.6666667 L16.4225,6.4225 Z" id="Shape"></path>
                <path d="M34.7558333,11.0775 L28.9225,5.24416667 L27.7441667,6.4225 L32.9883333,11.6666667 L27.7441667,16.9108333 L28.9225,18.0891667 L34.7558333,12.2558333 C35.0816667,11.93 35.0816667,11.4033333 34.7558333,11.0775 Z" id="Shape"></path>
                <rect id="Rectangle-path" transform="translate(22.081318, 10.835768) rotate(-63.434949) translate(-22.081318, -10.835768) " x="13.6985003" y="10.0024598" width="16.7656361" height="1.666616"></rect>
                <rect id="Rectangle-path" x="32.5" y="16.6666667" width="1.66666667" height="1.66666667"></rect>
                <rect id="Rectangle-path" x="35.8333333" y="16.6666667" width="1.66666667" height="1.66666667"></rect>
                <rect id="Rectangle-path" x="39.1666667" y="16.6666667" width="1.66666667" height="1.66666667"></rect>
            </g>
        </g>
    </g>
</svg>