<?xml version="1.0" encoding="UTF-8"?>
<svg width="28px" height="28px" viewBox="0 0 28 28" version="1.1" xmlns="http://www.w3.org/2000/svg" xmlns:xlink="http://www.w3.org/1999/xlink">
    <!-- Generator: Sketch 45 (43475) - http://www.bohemiancoding.com/sketch -->
    <title>github</title>
    <desc>Created with Sketch.</desc>
    <defs></defs>
    <g id="Symbols" stroke="none" stroke-width="1" fill="none" fill-rule="evenodd">
        <g id="github" fill-rule="nonzero" fill="#FFFFFF">
            <g id="002-github-sign">
                <path d="M26.4316173,1.53859681 C25.4057585,0.512929385 24.1708246,0 22.7258588,0 L5.24441913,0 C3.79989977,0 2.56451936,0.512929385 1.53859681,1.53859681 C0.512929385,2.56445558 0,3.79983599 0,5.24441913 L0,22.7261139 C0,24.1707608 0.512929385,25.4060137 1.53859681,26.4316811 C2.56445558,27.4575399 3.79989977,27.9704692 5.24441913,27.9704692 L9.32342597,27.9704692 C9.59028702,27.9704692 9.79075171,27.9612847 9.92424601,27.943426 C10.0576765,27.9250569 10.1911071,27.8460957 10.3247289,27.7063508 C10.4584146,27.566861 10.5250023,27.3634624 10.5250023,27.0964738 C10.5250023,27.060246 10.5218132,26.6470706 10.5158178,25.8580319 C10.509631,25.068738 10.5066333,24.4436173 10.5066333,23.9822232 L10.0877813,24.0551253 C9.82072893,24.1035991 9.48383599,24.1249658 9.07710251,24.1188428 C8.67056036,24.1127198 8.24858314,24.070369 7.81161731,23.9914077 C7.37439636,23.9123827 6.96785421,23.7303508 6.59148064,23.4453121 C6.21529841,23.1597631 5.94824601,22.7865786 5.79038724,22.3253759 L5.60822779,21.9062688 C5.48685194,21.6273531 5.2957631,21.317631 5.03470615,20.9779954 C4.7736492,20.6379134 4.50965831,20.4072164 4.24260592,20.2858405 L4.11510706,20.1947608 C4.03021412,20.1341048 3.95131663,20.0609476 3.87841458,19.9760547 C3.80564009,19.8909066 3.75104328,19.8058223 3.71462415,19.7211207 C3.67820501,19.6359727 3.70843736,19.5661321 3.80564009,19.511344 C3.90284282,19.4568109 4.07868793,19.4297677 4.33374943,19.4297677 L4.69781321,19.4843007 C4.94069248,19.5327745 5.24097494,19.6783235 5.59929841,19.9212665 C5.95736674,20.1640182 6.25171754,20.4796082 6.48241458,20.8679727 C6.76177677,21.3658497 7.0983508,21.7449658 7.49309339,22.0060228 C7.88751708,22.2673349 8.28519362,22.3978314 8.68574032,22.3978314 C9.08628702,22.3978314 9.4322369,22.3674715 9.72371754,22.3070068 C10.0148793,22.2461595 10.2880547,22.1548884 10.5431162,22.0335125 C10.6523736,21.2202369 10.9498497,20.5946697 11.4352893,20.1577039 C10.7433895,20.0848018 10.1212665,19.975672 9.56872893,19.8298679 C9.01651025,19.6840638 8.44585877,19.4474989 7.85715718,19.1195991 C7.26820046,18.7917631 6.77963554,18.3853485 6.39114351,17.8994624 C6.00271526,17.4135763 5.68393622,16.7762733 5.43525285,15.987426 C5.18644191,15.1981321 5.06200456,14.2875262 5.06200456,13.2557358 C5.06200456,11.7869157 5.54170387,10.5362916 6.50071982,9.50450114 C6.05144419,8.39980866 6.09385877,7.16168565 6.62809112,5.78974943 C6.98016401,5.68042825 7.5022779,5.76245103 8.19417768,6.03562642 C8.88620501,6.30899317 9.39288383,6.54275171 9.71472437,6.73671071 C10.0365649,6.93073349 10.2944328,7.09477904 10.4887107,7.22846469 C11.617959,6.91281093 12.7833075,6.75501595 13.9850752,6.75501595 C15.186779,6.75501595 16.3523189,6.91281093 17.481631,7.22846469 L18.1735945,6.79143508 C18.6472346,6.49995444 19.2055763,6.23290205 19.8490661,5.99021412 C20.492492,5.74746241 20.9840547,5.68061959 21.3241367,5.78994077 C21.8702323,7.16187699 21.9190888,8.4 21.4694943,9.5046287 C22.4285103,10.5365467 22.9083371,11.7871071 22.9083371,13.2559271 C22.9083371,14.2879089 22.7838998,15.2015763 22.5350888,15.9965467 C22.2864692,16.7917084 21.9649476,17.4292665 21.5700774,17.9087745 C21.1756538,18.3883462 20.6838998,18.7916993 20.0951982,19.1197267 C19.506369,19.4473713 18.9357813,19.6843827 18.3833075,19.8297403 C17.8308975,19.9755444 17.2088383,20.0851207 16.5168747,20.1580228 C17.1477358,20.7041185 17.4633257,21.5658041 17.4633257,22.74359 L17.4633257,27.0958998 C17.4633257,27.3023599 17.4934305,27.4691481 17.5541503,27.5966469 C17.6152528,27.724082 17.7122005,27.8118451 17.8456948,27.8607654 C17.9797631,27.9092392 18.0975672,27.9395353 18.2010205,27.95159 C18.3044738,27.9637722 18.4528929,27.9698952 18.6471708,27.9698952 L22.7261777,27.9698952 C24.170697,27.9698952 25.4061412,27.4569658 26.4315535,26.4311071 C27.4574123,25.4052483 27.9703417,24.1698041 27.9703417,22.7252847 L27.9703417,5.24441913 C27.9702141,3.79983599 27.4572847,2.56426424 26.4316173,1.53859681 Z" id="Shape"></path>
                <path d="M7.06714105,21.8478683 C6.95781987,21.9451986 6.98192921,22.0600687 7.13997932,22.1940733 C7.28546452,22.3394309 7.40690415,22.3577362 7.5040431,22.2482236 C7.60124584,22.1513398 7.57694515,22.036087 7.43120484,21.9025289 C7.28571964,21.7571075 7.16428001,21.7387384 7.06714105,21.8478683 Z" id="Shape"></path>
            </g>
        </g>
    </g>
</svg>